<svg xmlns="http://www.w3.org/2000/svg" version="1.1" xmlns:xlink="http://www.w3.org/1999/xlink" xmlns:svgjs="http://svgjs.dev/svgjs" width="1000" height="1000" viewBox="0 0 1000 1000"><rect width="1000" height="1000" fill="#000000"></rect><g transform="matrix(0.7,0,0,0.7,149.57575757575756,282.1265587044535)"><svg viewBox="0 0 396 247" data-background-color="#ffffff" preserveAspectRatio="xMidYMid meet" height="623" width="1000" xmlns="http://www.w3.org/2000/svg" xmlns:xlink="http://www.w3.org/1999/xlink"><g id="tight-bounds" transform="matrix(1,0,0,1,0.2400000000000091,-0.09999999999999432)"><svg viewBox="0 0 395.52 247.2" height="247.2" width="395.52"><g><svg></svg></g><g><svg viewBox="0 0 395.52 247.2" height="247.2" width="395.52"><g transform="matrix(1,0,0,1,75.54432,64.58841425644337)"><svg viewBox="0 0 244.43135999999998 118.02317148711323" height="118.02317148711323" width="244.43135999999998"><g><svg viewBox="0 0 244.43135999999998 118.02317148711323" height="118.02317148711323" width="244.43135999999998"><g><svg viewBox="0 0 244.43135999999998 118.02317148711323" height="118.02317148711323" width="244.43135999999998"><g><svg viewBox="0 0 244.43135999999998 118.02317148711323" height="118.02317148711323" width="244.43135999999998"><g><svg viewBox="0 0 244.43135999999998 118.02317148711323" height="118.02317148711323" width="244.43135999999998"><g><svg viewBox="0 0 244.43135999999998 75.17312787309808" height="75.17312787309808" width="244.43135999999998"><g transform="matrix(1,0,0,1,0,0)"><svg width="244.43135999999998" viewBox="-0.04 -32.16 123.55000000000001 38" height="75.17312787309808" data-palette-color="#77d4fc"><path d="M14.76 0.56L14.76 0.56Q12.8-1.32 12.8-5.08L12.8-5.08Q12.8-9.28 15.56-13.76L15.56-13.76Q17.08-16.24 19.68-17.84 22.28-19.44 25.36-19.44L25.36-19.44Q26.72-19.44 28.28-18.96L28.28-18.96Q31.32-23.96 33.24-26.2 35.16-28.44 36.56-29.6L36.56-29.6Q39.72-32.16 42.96-32.16L42.96-32.16Q43.6-32.16 43.6-31.52L43.6-31.52Q40.96-25.72 39.54-19.82 38.12-13.92 37.34-8.34 36.56-2.76 36.56 1.12L36.56 1.12Q36.56 1.68 36 1.68L36 1.68Q34.6 1.68 34.6-1.52L34.6-1.52Q34.6-5.56 33.84-8.84L33.84-8.84Q32.44-15.08 28.96-17.08L28.96-17.08Q28.52-16.24 27.3-13.88 26.08-11.52 25.5-10.42 24.92-9.32 23.78-7.34 22.64-5.36 21.84-4.16L21.84-4.16Q19.92-1.28 17.68 0.88L17.68 0.88Q18.08 1 18.64 1L18.64 1Q22 1 24.2-1.22 26.4-3.44 27.24-6.48L27.24-6.48Q27.36-6.92 27.88-6.88L27.88-6.88Q28.2-6.84 28.12-6.56L28.12-6.56Q27.24-3.12 24.78-0.54 22.32 2.04 18.6 2.04L18.6 2.04Q17.76 2.04 16.72 1.76L16.72 1.76Q13.04 4.72 8.88 4.72L8.88 4.72Q3.48 4.72 1.2 0.48L1.2 0.48Q-0.04-1.8-0.04-4.44L-0.04-4.44Q-0.04-5.84 0.32-7.36L0.32-7.36Q1.28-11.48 4.24-13.24L4.24-13.24Q5.72-14.12 7.48-14.12L7.48-14.12Q8.04-14.12 8.4-13.78 8.76-13.44 8.92-12.72L8.92-12.72Q6.56-12.72 4.68-11.04L4.68-11.04Q1.52-8.28 1.52-3.2L1.52-3.2Q1.52-0.12 3.38 1.62 5.24 3.36 8.38 3.36 11.52 3.36 14.76 0.56ZM25.32-18L25.32-18Q21.96-18 19.28-15.8 16.6-13.6 15.36-10.66 14.12-7.72 14.12-4.72 14.12-1.72 15.64-0.16L15.64-0.16Q17.16-1.6 18.88-3.94 20.6-6.28 21.6-7.88 22.6-9.48 24.72-13.08 26.84-16.68 27.48-17.72L27.48-17.72Q26.52-18 25.32-18ZM40.88-30.6L40.88-30.6Q37.68-29.76 35.04-26.64 32.4-23.52 29.64-18.36L29.64-18.36Q33.52-16.24 35.08-9.88L35.08-9.88Q35.8-16.68 37.42-22.38 39.04-28.08 40.88-30.6ZM49.6-11.6Q47.48-7.76 46.3-4.8 45.12-1.84 45.12-1.3 45.12-0.76 44.56-0.76L44.56-0.76Q43.36-0.76 43.36-3.96L43.36-3.96Q43.36-10.32 44.64-16.74 45.92-23.16 47.68-27.02 49.44-30.88 50.96-30.88L50.96-30.88Q51.6-30.88 51.6-30.24L51.6-30.24Q49.48-25.56 48.06-19.56 46.64-13.56 45.68-6.76L45.68-6.76 45.96-6.76Q51.04-19.24 55.92-19.24L55.92-19.24Q57.96-19.24 57.96-17.28L57.96-17.28Q57.68-16.36 57.24-14.86 56.8-13.36 56.08-9.48 55.36-5.6 55.36-2.68L55.36-2.68Q55.36 1.56 56.6 1.56L56.6 1.56Q57.04 1.56 57.48 1.18 57.92 0.8 58.08 0.8L58.08 0.8Q58.64 0.8 58.04 1.68L58.04 1.68Q57.88 1.96 57.34 2.44 56.8 2.92 56.28 2.92L56.28 2.92Q54.72 2.92 53.86 0.74 53-1.44 53-4.92L53-4.92Q53-10.8 54.76-17.04L54.76-17.04Q54.84-17.64 54.28-17.56L54.28-17.56Q54-17.52 53.72-17.24L53.72-17.24Q51.72-15.44 49.6-11.6ZM70.32-4.88L70.32-4.88Q70.32-9.8 72.12-17.32L72.12-17.32Q72.24-17.72 71.88-17.68L71.88-17.68Q71.6-17.64 71.36-17.44L71.36-17.44Q69.6-15.96 67.48-11.96 65.36-7.96 64.08-4.66 62.8-1.36 62.8-0.8L62.8-0.8Q62.8-0.32 62.2-0.32L62.2-0.32Q61-0.32 61-3.48L61-3.48Q61-9.48 62.2-14.3 63.4-19.12 65.12-19.12L65.12-19.12Q65.88-19.12 65.88-18.28L65.88-18.28Q64.04-12.48 63.24-6.36L63.24-6.36 63.6-6.36Q68.88-19.56 73.32-19.56L73.32-19.56Q75.24-19.56 75.24-17.68L75.24-17.68Q73.36-12.08 72.52-6.64L72.52-6.64 72.84-6.64Q74.16-9.44 75.5-11.74 76.84-14.04 78.64-16.02 80.44-18 81.88-18L81.88-18Q83.8-18 83.8-16.16L83.8-16.16Q81.72-9.24 81.72-2.68L81.72-2.68Q81.72 1.56 83 1.56L83 1.56Q83.44 1.56 83.88 1.18 84.32 0.8 84.48 0.8L84.48 0.8Q85.04 0.8 84.44 1.68L84.44 1.68Q84.28 1.96 83.74 2.44 83.2 2.92 82.68 2.92L82.68 2.92Q81.12 2.92 80.26 0.74 79.4-1.44 79.4-4.92L79.4-4.92Q79.4-11.04 80.68-15.68L80.68-15.68Q80.76-15.96 80.48-15.96L80.48-15.96Q80.24-15.92 80-15.72L80-15.72Q77.72-13.76 74.92-8.46 72.12-3.16 72.12-2.2L72.12-2.2Q72.12-1.72 71.48-1.72L71.48-1.72Q70.32-1.72 70.32-4.88ZM97.55-19.4L97.55-19.4Q100.59-19.4 100.59-15.84L100.59-15.84Q100.59-13.8 99.23-11.56L99.23-11.56Q96.91-7.84 93.07-7.84L93.07-7.84Q92.47-7.84 92.07-8.04 91.67-8.24 91.47-8.64L91.47-8.64Q94.31-8.64 96.67-11.92L96.67-11.92Q98.59-14.56 98.59-16.76L98.59-16.76Q98.59-18.4 97.27-18.4L97.27-18.4Q94.63-18.4 92.35-14.28L92.35-14.28Q89.91-9.8 89.91-5.08L89.91-5.08Q89.91-1.08 92.19-0.28L92.19-0.28Q92.63-0.12 93.31-0.12 93.99-0.12 94.75-0.46 95.51-0.8 96.03-1.28L96.03-1.28Q97.07-2.24 97.75-3.4L97.75-3.4Q97.91-3.72 98.35-3.72L98.35-3.72Q99.07-3.72 99.03-3.48L99.03-3.48Q98.91-3.04 98.13-2 97.35-0.96 96.69-0.34 96.03 0.28 94.97 0.78 93.91 1.28 92.83 1.28L92.83 1.28Q88.59 1.28 87.43-2.72L87.43-2.72Q87.07-4.08 87.07-5.52L87.07-5.52Q87.07-8.2 88.31-11.36L88.31-11.36Q90.27-16.16 93.71-18.28L93.71-18.28Q95.59-19.4 97.55-19.4ZM106.03 0L106.03 0Q102.67 0 102.67-5.16L102.67-5.16Q102.67-8.16 104.19-11.76L104.19-11.76Q106.27-16.8 109.67-18.6L109.67-18.6Q111.15-19.4 112.35-19.4 113.55-19.4 114.19-18.98 114.83-18.56 115.03-18.12L115.03-18.12 115.23-17.68Q115.11-17 114.51-17 113.91-17 113.65-17.66 113.39-18.32 112.43-18.32L112.43-18.32Q109.83-18.32 107.79-13.72L107.79-13.72Q105.43-8.52 105.43-3.88L105.43-3.88Q105.43-1.44 106.43-1.44L106.43-1.44Q107.23-1.44 108.77-3.42 110.31-5.4 111.95-8.24L111.95-8.24Q114.19-12.16 115.91-15.4L115.91-15.4Q117.35-21.64 119.41-26.3 121.47-30.96 122.83-30.96L122.83-30.96Q123.51-30.96 123.51-30.28L123.51-30.28Q122.55-28.2 121.25-24.6 119.95-21 119.05-17.74 118.15-14.48 117.41-9.96 116.67-5.44 116.67-1.44L116.67-1.44Q116.67 4.52 119.27 4.52L119.27 4.52Q120.27 4.52 121.13 3.66 121.99 2.8 122.35 1.96L122.35 1.96Q122.55 1.52 123.07 1.72L123.07 1.72Q123.27 1.8 123.23 1.96L123.23 1.96Q122.99 2.48 122.63 3.16 122.27 3.84 121.21 4.84 120.15 5.84 119.07 5.84L119.07 5.84Q114.31 5.84 114.31-3.12L114.31-3.12Q114.31-6.28 114.87-9.88L114.87-9.88 114.35-9.88Q108.71 0 106.03 0Z" opacity="1" transform="matrix(1,0,0,1,0,0)" fill="#ffffff" class="undefined-text-0" data-fill-palette-color="primary" id="text-0"></path></svg></g></svg></g><g transform="matrix(1,0,0,1,0,92.91969920886758)"><svg viewBox="0 0 244.43135999999998 25.10347227824565" height="25.10347227824565" width="244.43135999999998"><g transform="matrix(1,0,0,1,0,0)"><svg width="244.43135999999998" viewBox="0 -36.75 457.11 46.95" height="25.10347227824565" data-palette-color="#4b91f1"><path d="M45.65-32.5L45.95-30.9Q44.2-30.1 42-29.45L42-29.45 33.65 0.15Q31.55 0.55 29.65 0.55L29.65 0.55 28.2 0.5 22.8-18.6 22.7-18.6 21.75-12.95 17.65 0.15Q15.55 0.55 13.75 0.55L13.75 0.55 12.3 0.5 3.75-29.7 0-30.15 0.05-32.5 12.9-32.5 13.2-30.9 8.8-29.3 14.45-8.75 15-2.95 15.2-2.95 21.3-23.9 19.4-30.7 24.15-31.95 30.05-8.65 30.75-2.95 30.9-2.95 38.2-29.55 33.15-30.15 33.2-32.5 45.65-32.5ZM60-12.85L47.15-13.1Q47.15-8.15 49.42-5.6 51.7-3.05 55.35-3.05L55.35-3.05Q58.05-3.05 61.75-4.7L61.75-4.7 62.5-2.55 54.7 0.75Q49.2 0.75 45.82-2.63 42.45-6 42.45-11.3L42.45-11.3Q42.45-16.7 45.77-20.55 49.1-24.4 53.9-24.4L53.9-24.4Q56.5-24.4 58.57-23.25 60.65-22.1 61.77-20.1 62.9-18.1 62.85-15.65L62.85-15.65 60-12.85ZM51.4-21.35L51.4-21.35Q48.55-19.85 47.55-15.75L47.55-15.75 58.5-16.25Q58-18.65 56.02-20.1 54.05-21.55 51.4-21.35ZM71.75-20.3L77.65-24.05 79.55-24.25Q83.5-24.25 86.12-20.88 88.75-17.5 88.75-12.5L88.75-12.5Q88.75-6.7 85.09-2.88 81.45 0.95 75.84 0.95L75.84 0.95Q72 0.95 67.3-1.2L67.3-1.2 67.3-33.15 63.6-32.85 63-35.2Q66.34-36.65 69.8-36.75L69.8-36.75 71.75-34.95 71.75-20.3ZM77.84-2.35L79.8-2.5Q81.75-3.7 82.9-6.2 84.05-8.7 84.05-11.5L84.05-11.5Q84.05-15.05 82.3-17.6 80.55-20.15 77.9-20.15L77.9-20.15Q75.5-20.15 71.75-17.65L71.75-17.65 71.75-4.2Q74.3-2.35 77.84-2.35L77.84-2.35ZM96.14-18.5L96.14-18.5Q96.14-16.9 97.44-15.95 98.74-15 101.44-13.8L101.44-13.8 104.39-12.45Q108.69-10.2 108.69-6.25L108.69-6.25Q108.69-3.05 106.29-1.03 103.89 1 100.09 1L100.09 1Q95.94 1 91.24-1.6L91.24-1.6 93.09-6Q97.79-2.8 102.99-2.1L102.99-2.1Q104.34-3.3 104.34-5 104.34-6.7 103.09-7.75 101.84-8.8 98.17-10.43 94.49-12.05 93.22-13.58 91.94-15.1 91.94-17.25L91.94-17.25Q91.94-20.4 94.62-22.4 97.29-24.4 101.44-24.4L101.44-24.4Q104.94-24.4 107.84-22.9L107.84-22.9Q107.99-19.25 106.99-16.45L106.99-16.45 104.29-16.45 103.94-20.3Q101.44-21.4 98.69-21.4L98.69-21.4 97.74-21.35Q96.14-20.35 96.14-18.5ZM118.49-28.65L118.49-28.65Q116.04-29.7 114.64-31.65L114.64-31.65Q115.94-34.35 117.69-35.45L117.69-35.45Q119.94-34.55 121.44-32.45L121.44-32.45Q120.64-30.15 118.49-28.65ZM120.49-22.45L120.49-3.2Q122.99-2.9 124.09-2.4L124.09-2.4 123.79 0 112.49 0 112.24-1.65Q113.44-2.25 116.04-3.05L116.04-3.05 116.04-20.6 112.29-20.3 111.69-22.65Q115.04-24.1 118.49-24.2L118.49-24.2 120.49-22.45ZM135.64-3.4L135.64-3.4Q137.09-3.4 140.24-4.55L140.24-4.55 141.09-2.25 134.59 0.75Q132.89 0.85 131.21-0.53 129.54-1.9 129.54-3.5L129.54-3.5 129.54-19.65 126.44-19.6 126.09-22Q127.69-22.7 129.64-23.15L129.64-23.15 131.64-29.45 133.99-29.45 133.99-23.4 140.99-23.4 141.19-21.95 138.84-19.55 133.99-19.55 133.99-6.1Q133.99-4.55 134.34-3.98 134.69-3.4 135.64-3.4ZM160.79-12.85L147.94-13.1Q147.94-8.15 150.21-5.6 152.49-3.05 156.14-3.05L156.14-3.05Q158.84-3.05 162.54-4.7L162.54-4.7 163.29-2.55 155.49 0.75Q149.99 0.75 146.61-2.63 143.24-6 143.24-11.3L143.24-11.3Q143.24-16.7 146.56-20.55 149.89-24.4 154.69-24.4L154.69-24.4Q157.29-24.4 159.36-23.25 161.44-22.1 162.56-20.1 163.69-18.1 163.64-15.65L163.64-15.65 160.79-12.85ZM152.19-21.35L152.19-21.35Q149.34-19.85 148.34-15.75L148.34-15.75 159.29-16.25Q158.79-18.65 156.81-20.1 154.84-21.55 152.19-21.35ZM195.13-32.9L195.13-32.9Q201.38-32.9 205.58-28.08 209.78-23.25 209.78-16.45L209.78-16.45Q209.78-9.25 205.41-4.73 201.03-0.2 193.93 0L193.93 0 179.83 0 179.53-1.6 183.78-3.15 183.78-29.9 180.23-30.1 180.28-32.5Q188.18-32.9 195.13-32.9ZM193.08-3.3L193.08-3.3Q198.28-3.3 201.43-6.98 204.58-10.65 204.58-16.45L204.58-16.45Q204.58-20.9 202.61-24.65 200.63-28.4 197.63-29.95L197.63-29.95 188.43-29.2 188.43-3.95Q190.88-3.3 193.08-3.3ZM229.33-12.85L216.48-13.1Q216.48-8.15 218.75-5.6 221.03-3.05 224.68-3.05L224.68-3.05Q227.38-3.05 231.08-4.7L231.08-4.7 231.83-2.55 224.03 0.75Q218.53 0.75 215.15-2.63 211.78-6 211.78-11.3L211.78-11.3Q211.78-16.7 215.1-20.55 218.43-24.4 223.23-24.4L223.23-24.4Q225.83-24.4 227.9-23.25 229.98-22.1 231.1-20.1 232.23-18.1 232.18-15.65L232.18-15.65 229.33-12.85ZM220.73-21.35L220.73-21.35Q217.88-19.85 216.88-15.75L216.88-15.75 227.83-16.25Q227.33-18.65 225.35-20.1 223.38-21.55 220.73-21.35ZM258.78-23.4L259.08-21.6 255.93-20.4Q251.38-7 248.58-0.15L248.58-0.15Q247.23 0.3 245.38 0.3L245.38 0.3 242.78 0.1 235.63-20.8 232.83-20.95 232.88-23.4 242.88-23.4 243.18-21.6 240.68-20.65 244.43-8.65 245.13-3.3 246.33-3.3Q248.83-10.65 251.43-20.8L251.43-20.8 248.73-20.95 248.78-23.4 258.78-23.4ZM276.12-12.85L263.27-13.1Q263.27-8.15 265.55-5.6 267.82-3.05 271.47-3.05L271.47-3.05Q274.17-3.05 277.87-4.7L277.87-4.7 278.62-2.55 270.82 0.75Q265.32 0.75 261.95-2.63 258.57-6 258.57-11.3L258.57-11.3Q258.57-16.7 261.9-20.55 265.22-24.4 270.02-24.4L270.02-24.4Q272.62-24.4 274.7-23.25 276.77-22.1 277.9-20.1 279.02-18.1 278.97-15.65L278.97-15.65 276.12-12.85ZM267.52-21.35L267.52-21.35Q264.67-19.85 263.67-15.75L263.67-15.75 274.62-16.25Q274.12-18.65 272.15-20.1 270.17-21.55 267.52-21.35ZM289.67-35L289.67-3.2Q292.17-2.9 293.27-2.4L293.27-2.4 292.97 0 281.67 0 281.42-1.65Q282.62-2.25 285.22-3.05L285.22-3.05 285.22-33.15 281.47-32.85 280.87-35.2Q284.22-36.65 287.67-36.75L287.67-36.75 289.67-35ZM295.27-11.8Q295.27-17.4 298.44-20.9 301.62-24.4 306.57-24.4L306.57-24.4Q311.47-24.4 314.52-20.8 317.57-17.2 317.57-11.5L317.57-11.5Q317.57-5.85 314.57-2.43 311.57 1 306.67 1L306.67 1Q301.72 1 298.49-2.6 295.27-6.2 295.27-11.8ZM309.62-2.6L309.62-2.6Q312.87-4.75 312.87-10.95L312.87-10.95Q312.87-15.4 311.22-18.35 309.57-21.3 306.17-21.3L306.17-21.3Q303.92-21.3 302.37-20.2L302.37-20.2Q300.02-17.4 300.02-12.35L300.02-12.35Q300.02-8.05 301.84-5.15 303.67-2.25 307.22-2.25L307.22-2.25Q308.37-2.25 309.62-2.6ZM332.17 0.95L332.17 0.95Q330.27 0.95 328.32 0.5L328.32 0.5 328.32 6.95Q331.07 7.2 332.42 7.8L332.42 7.8 332.12 10.2 320.82 10.2 320.57 8.55 323.87 7.35 323.87-20.6 320.17-20.3 319.57-22.65Q322.92-24.1 326.37-24.2L326.37-24.2 328.32-22.45 328.32-20.35 333.97-24.05 335.87-24.25Q339.82-24.25 342.44-20.88 345.07-17.5 345.07-12.5L345.07-12.5Q345.07-6.7 341.42-2.88 337.77 0.95 332.17 0.95ZM334.22-20.15L334.22-20.15Q331.97-20.15 328.32-17.8L328.32-17.8 328.32-4Q330.72-2.35 334.12-2.35L334.12-2.35 336.12-2.5Q338.07-3.7 339.22-6.2 340.37-8.7 340.37-11.5L340.37-11.5Q340.37-15.05 338.62-17.6 336.87-20.15 334.22-20.15ZM385.71-15.35L385.71-3.2Q388.26-2.85 389.21-2.4L389.21-2.4 388.91 0 378.66 0 378.41-1.65 381.26-2.75 381.26-14.8Q381.26-20.2 378.06-20.2L378.06-20.2Q375.51-20.2 370.76-16.8L370.76-16.8 370.76-3.2Q373.31-2.85 374.26-2.4L374.26-2.4 373.96 0 363.71 0 363.46-1.65 366.31-2.75 366.31-14.8Q366.31-20.2 363.11-20.2L363.11-20.2Q360.51-20.2 355.86-16.85L355.86-16.85 355.86-3.15Q357.96-2.9 359.11-2.4L359.11-2.4 358.81 0 348.11 0 347.86-1.65 351.41-2.95 351.41-20.6 347.66-20.3 347.06-22.65Q350.41-24.1 353.86-24.2L353.86-24.2 355.86-22.45 355.86-19.5Q362.91-24.2 365.51-24.2L365.51-24.2Q366.86-23.95 368.16-22.95 369.46-21.95 370.06-20.85L370.06-20.85 370.51-19.35Q378.06-24.2 380.46-24.2L380.46-24.2Q381.91-23.95 383.39-22.73 384.86-21.5 385.29-20.2 385.71-18.9 385.71-15.35L385.71-15.35ZM408.01-12.85L395.16-13.1Q395.16-8.15 397.44-5.6 399.71-3.05 403.36-3.05L403.36-3.05Q406.06-3.05 409.76-4.7L409.76-4.7 410.51-2.55 402.71 0.75Q397.21 0.75 393.84-2.63 390.46-6 390.46-11.3L390.46-11.3Q390.46-16.7 393.79-20.55 397.11-24.4 401.91-24.4L401.91-24.4Q404.51-24.4 406.59-23.25 408.66-22.1 409.79-20.1 410.91-18.1 410.86-15.65L410.86-15.65 408.01-12.85ZM399.41-21.35L399.41-21.35Q396.56-19.85 395.56-15.75L395.56-15.75 406.51-16.25Q406.01-18.65 404.04-20.1 402.06-21.55 399.41-21.35ZM436.51-15.35L436.51-3.2Q439.06-2.85 440.01-2.4L440.01-2.4 439.71 0 429.46 0 429.21-1.65 432.06-2.75 432.06-14.8Q432.06-20.2 428.86-20.2L428.86-20.2Q425.96-20.2 421.06-16.45L421.06-16.45 421.06-3.15Q423.16-2.9 424.31-2.4L424.31-2.4 424.01 0 413.31 0 413.06-1.65 416.61-2.95 416.61-20.6 412.86-20.3 412.26-22.65Q415.61-24.1 419.06-24.2L419.06-24.2 421.06-22.45 421.06-19.15Q428.56-24.2 431.26-24.2L431.26-24.2Q432.71-23.95 434.18-22.73 435.66-21.5 436.08-20.2 436.51-18.9 436.51-15.35L436.51-15.35ZM451.56-3.4L451.56-3.4Q453.01-3.4 456.16-4.55L456.16-4.55 457.01-2.25 450.51 0.75Q448.81 0.85 447.13-0.53 445.46-1.9 445.46-3.5L445.46-3.5 445.46-19.65 442.36-19.6 442.01-22Q443.61-22.7 445.56-23.15L445.56-23.15 447.56-29.45 449.91-29.45 449.91-23.4 456.91-23.4 457.11-21.95 454.76-19.55 449.91-19.55 449.91-6.1Q449.91-4.55 450.26-3.98 450.61-3.4 451.56-3.4Z" opacity="1" transform="matrix(1,0,0,1,0,0)" fill="#ffffff" class="undefined-text-1" data-fill-palette-color="secondary" id="text-1"></path></svg></g></svg></g></svg></g></svg></g></svg></g></svg></g></svg></g><g><path d="M0 123.6c0-68.262 55.338-123.6 123.6-123.6 43.19 0 81.206 22.153 103.305 55.715l-4.083 0c-21.66-31.597-58.02-52.326-99.222-52.325-66.39 0-120.21 53.82-120.21 120.21 0 66.39 53.82 120.21 120.21 120.21 41.202 0 77.562-20.728 99.222-52.325l4.083 0c-22.1 33.563-60.116 55.715-103.305 55.715-68.262 0-123.6-55.338-123.6-123.6z" fill="#77d4fc" stroke="transparent" data-fill-palette-color="tertiary"></path></g></svg></g><defs></defs></svg><rect width="395.52" height="247.2" fill="none" stroke="none" visibility="hidden"></rect></g></svg></g></svg>